<svg xmlns="http://www.w3.org/2000/svg" width="20.864" height="26.083" viewBox="0 0 20.864 26.083">
  <path id="account_icon" d="M13.432,1,3,5.742v7.113c0,6.58,4.451,12.733,10.432,14.227,5.981-1.494,10.432-7.647,10.432-14.227V5.742Zm0,4.742A3.558,3.558,0,1,1,9.955,9.3,3.518,3.518,0,0,1,13.432,5.742Zm5.946,14.227a11.289,11.289,0,0,1-5.946,4.647,11.289,11.289,0,0,1-5.946-4.647,10.6,10.6,0,0,1-1.008-1.814c0-1.956,3.141-3.557,6.955-3.557s6.955,1.565,6.955,3.557A10.59,10.59,0,0,1,19.378,19.969Z" transform="translate(-3 -1)" fill="#b9b9b9"/>
</svg>
