<svg xmlns="http://www.w3.org/2000/svg" width="19" height="19" viewBox="0 0 19 19">
  <path id="copyright_icon" d="M9.676,10.417a2.429,2.429,0,0,1,.285-.826A1.662,1.662,0,0,1,10.522,9a1.686,1.686,0,0,1,.865-.218,1.722,1.722,0,0,1,.6.123,1.532,1.532,0,0,1,.494.342,1.829,1.829,0,0,1,.323.5,1.664,1.664,0,0,1,.133.608h1.7a3.4,3.4,0,0,0-.266-1.226,2.851,2.851,0,0,0-.665-.96,3.1,3.1,0,0,0-1.026-.627,3.67,3.67,0,0,0-1.32-.219,3.713,3.713,0,0,0-1.615.323,3.267,3.267,0,0,0-1.14.874,3.571,3.571,0,0,0-.675,1.292A5.564,5.564,0,0,0,7.7,11.377v.257a5.562,5.562,0,0,0,.218,1.558,3.454,3.454,0,0,0,.674,1.283,3.243,3.243,0,0,0,1.14.865,3.855,3.855,0,0,0,1.615.323,3.623,3.623,0,0,0,1.254-.218,3.24,3.24,0,0,0,1.026-.6,2.9,2.9,0,0,0,.7-.893,2.557,2.557,0,0,0,.285-1.092h-1.7a1.353,1.353,0,0,1-.142.551,1.4,1.4,0,0,1-.342.437,1.5,1.5,0,0,1-.494.285,1.886,1.886,0,0,1-.57.1,1.614,1.614,0,0,1-.845-.219,1.662,1.662,0,0,1-.561-.589,2.482,2.482,0,0,1-.285-.836,6.4,6.4,0,0,1-.076-.95v-.257A6.329,6.329,0,0,1,9.676,10.417ZM11.5,2A9.5,9.5,0,1,0,21,11.5,9.5,9.5,0,0,0,11.5,2Zm0,17.1a7.6,7.6,0,1,1,7.6-7.6A7.61,7.61,0,0,1,11.5,19.1Z" transform="translate(-2 -2)" fill="#fff"/>
</svg>
