<svg xmlns="http://www.w3.org/2000/svg" width="26" height="26" viewBox="0 0 26 26">
  <path id="instagram_icon" d="M9.54,2H20.46A7.54,7.54,0,0,1,28,9.54V20.46A7.54,7.54,0,0,1,20.46,28H9.54A7.54,7.54,0,0,1,2,20.46V9.54A7.54,7.54,0,0,1,9.54,2ZM9.28,4.6A4.68,4.68,0,0,0,4.6,9.28V20.72A4.68,4.68,0,0,0,9.28,25.4H20.72a4.68,4.68,0,0,0,4.68-4.68V9.28A4.68,4.68,0,0,0,20.72,4.6ZM21.825,6.55A1.625,1.625,0,1,1,20.2,8.175,1.625,1.625,0,0,1,21.825,6.55ZM15,8.5A6.5,6.5,0,1,1,8.5,15,6.5,6.5,0,0,1,15,8.5Zm0,2.6A3.9,3.9,0,1,0,18.9,15,3.9,3.9,0,0,0,15,11.1Z" transform="translate(-2 -2)" fill="#7c3dee"/>
</svg>
