<svg xmlns="http://www.w3.org/2000/svg" width="22.608" height="22.609" viewBox="0 0 22.608 22.609">
  <g id="language_icon" transform="translate(0 0)">
    <path id="Path_A_sub" d="M121.122,137h-.289l-.54,2.7h1.368Z" transform="translate(-114.987 -130.966)" fill="#b9b9b9"/>
    <path id="Path_X_sub" d="M381.374,257a7.053,7.053,0,0,0,1.108,1.956A7.125,7.125,0,0,0,383.635,257Z" transform="translate(-364.568 -245.671)" fill="#b9b9b9"/>
    <path id="Path_X" d="M252.757,91h-8.381l1.748,14.023a2.1,2.1,0,0,1-.5,1.536l-2.96,3.382h10.094a2.027,2.027,0,0,0,2.025-2.025V93.07A2.066,2.066,0,0,0,252.757,91Zm0,7.469h-.18a8.563,8.563,0,0,1-1.626,2.956c.5.453,1.026.825,1.553,1.242a.675.675,0,0,1-.844,1.053c-.573-.452-1.11-.83-1.648-1.324-.538.493-1.03.872-1.6,1.324a.675.675,0,0,1-.844-1.053c.527-.416,1.012-.788,1.508-1.242a8.518,8.518,0,0,1-1.581-2.956h-.18a.675.675,0,1,1,0-1.35h2.025v-.675a.675.675,0,1,1,1.35,0v.675h2.07a.675.675,0,0,1,0,1.35Z" transform="translate(-232.173 -87.333)" fill="#b9b9b9"/>
    <path id="Path_A" d="M10.986,1.774A2.027,2.027,0,0,0,8.977,0H2.025A2.027,2.027,0,0,0,0,2.025V16.962a2.027,2.027,0,0,0,2.025,2.025H12.668c.2-.225.362-.366.369-.66C13.039,18.254,10.995,1.847,10.986,1.774ZM8.276,12.9a.675.675,0,0,1-.794-.529l-.431-2.157H5.143l-.431,2.157a.675.675,0,1,1-1.323-.265l1.35-6.749A.675.675,0,0,1,5.4,4.814H6.794a.675.675,0,0,1,.662.542l1.35,6.749A.675.675,0,0,1,8.276,12.9Z" fill="#b9b9b9"/>
    <path id="Path_temp" d="M175.261,452l.116.926a2.041,2.041,0,0,0,1.167,1.568L178.81,452Z" transform="translate(-167.549 -432.091)" fill="#b9b9b9"/>
  </g>
</svg>
