<svg xmlns="http://www.w3.org/2000/svg" width="423.542" height="421.476" viewBox="0 0 423.542 421.476">
  <g id="main_background_1" transform="translate(-0.001 0)">
    <path id="background" d="M5526,1543v421.476L5949.543,1543Z" transform="translate(-5526 -1543)" fill="#8952ee"/>
    <path id="star1" d="M8.9-17.2C7.7-14.3,6.5-13.1,4-12.4-.7-11.1-.7-9.6,3.8-8.1,6.8-7.1,8-6,8.9-3.4,9.6-1.5,10.5,0,11,0s1.4-1.5,2.1-3.4C14-6,15.2-7.1,18.2-8.1c4.5-1.5,4.5-3-.2-4.3-2.5-.7-3.7-1.9-4.9-4.8C12.2-19.3,11.3-21,11-21S9.8-19.3,8.9-17.2Z" transform="translate(118.55 287.869)" fill="#fff" opacity="0.5"/>
  </g>
</svg>
