<svg xmlns="http://www.w3.org/2000/svg" width="120" height="120" viewBox="0 0 120 120">
  <g id="news_icon" transform="translate(-137 -945.8)">
    <path id="bk" d="M0,0H116V91.256L57.84,118,0,91.256Z" transform="translate(139 947.8)" fill="#fff"/>
    <path id="path1" d="M32.209,29.521a4.386,4.386,0,0,0-2.838,2.535c-.433,1.022-.408,87.625.026,89.006a3.672,3.672,0,0,0,1.281,2A28.491,28.491,0,0,0,33.5,124.61c1.389.586,2.188.944,2.353,1.054a9.934,9.934,0,0,0,1.571.716c.426.175,1.272.554,1.878.844s1.484.7,1.949.906,1.047.477,1.294.6.7.322,1.012.451.754.337.987.462.55.28.7.343.536.244.846.4.711.339.89.4,1.079.477,2,.918,1.719.8,1.774.8a5.483,5.483,0,0,1,.843.4,6.039,6.039,0,0,0,.83.4,36.735,36.735,0,0,1,3.4,1.614.384.384,0,0,0,.272.106,10.256,10.256,0,0,1,1.535.631c.739.347,1.375.631,1.414.631a4.891,4.891,0,0,1,.677.331,10.143,10.143,0,0,0,1.1.514,7.086,7.086,0,0,1,.7.3c.116.064,1,.478,1.974.92s1.857.853,1.974.914.592.272,1.057.469a8.549,8.549,0,0,1,1.068.52.847.847,0,0,0,.331.161,14.594,14.594,0,0,1,1.426.631,15.283,15.283,0,0,0,1.42.631.853.853,0,0,1,.325.161,12.809,12.809,0,0,0,1.35.646,13.629,13.629,0,0,1,1.35.641.849.849,0,0,0,.339.157c.1,0,2.509,1.088,3.315,1.5.116.059.4.185.634.28s.613.276.846.4a6.751,6.751,0,0,0,.712.333c.159.058.793.348,1.41.645s1.27.587,1.452.644a9.465,9.465,0,0,1,1.057.476c.4.2.853.436,1.008.514a9.4,9.4,0,0,0,8.578.177,6.109,6.109,0,0,1,.952-.378.119.119,0,0,0,.128-.106,2.008,2.008,0,0,1,.74-.4c.841-.331,2.4-1.029,2.925-1.311.194-.1.67-.322,1.057-.485s.959-.423,1.269-.579.723-.347.916-.424.543-.24.775-.36.645-.318.916-.437c1.444-.635,3.61-1.628,4.089-1.873a5.036,5.036,0,0,1,.6-.232c.213-.068.388-.167.388-.22s.132-.13.294-.172a16.153,16.153,0,0,0,1.491-.638,12.3,12.3,0,0,1,1.309-.562,1.47,1.47,0,0,0,.448-.216,12.383,12.383,0,0,1,1.182-.592c1.143-.509,1.454-.652,2.114-.969.31-.149.754-.35.987-.446s.8-.354,1.269-.575,1.138-.527,1.5-.68,1.321-.6,2.143-.981,1.767-.822,2.1-.969c.91-.4,1.828-.826,3.8-1.757.983-.463,1.828-.842,1.88-.842a5.682,5.682,0,0,0,.822-.378c.4-.208,1.014-.5,1.363-.648a6.731,6.731,0,0,0,.857-.425.855.855,0,0,1,.352-.155,10,10,0,0,0,1.278-.562,14.191,14.191,0,0,1,1.444-.638,1.536,1.536,0,0,0,.474-.217,6.665,6.665,0,0,1,.952-.465c.426-.179,1.039-.468,1.361-.644a5.411,5.411,0,0,1,.895-.4,5.419,5.419,0,0,0,.895-.4c.322-.175,1-.483,1.5-.685s1.361-.57,1.9-.82,1.146-.516,1.339-.592a1.9,1.9,0,0,0,.423-.21,3.455,3.455,0,0,1,.547-.289,12.279,12.279,0,0,0,3.109-1.87,4.371,4.371,0,0,0,.757-1.295l.31-.836.021-43.915.021-43.915-.293-.688a4.42,4.42,0,0,0-2.745-2.465l-.882-.345-56.077.006-56.077.006-.777.31m109.808,3.3a4.521,4.521,0,0,1,2.65,1.763l.4.631.038,39.672c.022,22.869-.017,40.643-.091,41.965-.187,3.319-.367,3.569-3.939,5.472-.441.235-.991.505-1.224.6s-.613.269-.846.384c-.679.335-3.855,1.741-3.933,1.741a5.076,5.076,0,0,0-.69.34,8.994,8.994,0,0,1-.959.462c-.187.067-.593.247-.9.4s-.659.316-.775.361-1.185.538-2.375,1.095-2.216,1.012-2.281,1.012a.683.683,0,0,0-.311.157,24.219,24.219,0,0,1-3,1.387c-.31.135-.82.379-1.133.541s-.947.457-1.41.655-1.285.568-1.828.821-1.177.537-1.41.63a16.775,16.775,0,0,0-1.692.809,7.075,7.075,0,0,1-1.026.44,6.792,6.792,0,0,0-1.054.474,5.173,5.173,0,0,1-.839.392,5.7,5.7,0,0,0-.878.4,6.489,6.489,0,0,1-.859.4c-.048,0-.892.379-1.875.842s-1.883.877-2,.92-.447.193-.735.333c-.641.313-2.832,1.316-3.466,1.586a6.134,6.134,0,0,0-.634.306c-.093.06-.677.327-1.3.594a12.825,12.825,0,0,0-1.35.646.848.848,0,0,1-.328.161,8.414,8.414,0,0,0-1.046.443c-.518.244-1.227.572-1.576.729s-.856.4-1.128.528-.684.319-.916.413-.867.379-1.41.633-1.082.5-1.2.538-.5.181-.846.31a7.364,7.364,0,0,1-2.749.241l-2.115.006-1.174-.488a10.321,10.321,0,0,1-1.384-.659.751.751,0,0,0-.331-.172,12.412,12.412,0,0,1-1.364-.586c-.685-.322-1.372-.633-1.527-.69a7.731,7.731,0,0,1-.7-.324c-.454-.236-1.7-.785-3.172-1.4a8.908,8.908,0,0,1-.987-.453,8.037,8.037,0,0,0-.9-.431c-.458-.2-.9-.4-.987-.459s-.661-.319-1.282-.588-1.279-.585-1.464-.7a1.51,1.51,0,0,0-.439-.213c-.056,0-1.314-.568-2.794-1.261s-2.723-1.261-2.761-1.261a4.932,4.932,0,0,1-.676-.331,10.416,10.416,0,0,0-1.1-.516c-.271-.1-.716-.294-.987-.428s-.837-.393-1.256-.575-.832-.376-.916-.43-.6-.292-1.141-.528l-2.044-.891A15.27,15.27,0,0,1,56.194,131a1.45,1.45,0,0,0-.454-.213,11.6,11.6,0,0,1-1.311-.573,10.233,10.233,0,0,0-1.333-.573.689.689,0,0,1-.333-.157,10.747,10.747,0,0,0-1.314-.646c-.616-.269-1.29-.585-1.5-.7a1.643,1.643,0,0,0-.53-.214,3.569,3.569,0,0,1-.824-.373c-.368-.2-1.017-.519-1.444-.7s-1.029-.449-1.339-.6-.659-.3-.775-.341a3.947,3.947,0,0,1-.423-.17c-1.147-.553-3.428-1.6-3.877-1.777a6.6,6.6,0,0,1-.775-.357c-.116-.073-.592-.295-1.057-.492a21.135,21.135,0,0,1-2.669-1.335,7.926,7.926,0,0,1-1.865-1.319,3.907,3.907,0,0,1-1.034-2.284c-.072-.294-.129-18.1-.134-41.478L33.2,35.736l.293-.689a4.014,4.014,0,0,1,2.923-2.239c1.126-.252,104.522-.235,105.6.017m-106.141.782a3.421,3.421,0,0,0-1.8,1.638c-.389.866-.381,82.371.008,83.487a3.66,3.66,0,0,0,1.244,1.8,47.279,47.279,0,0,0,5.62,2.8,13.216,13.216,0,0,1,1.475.631,14.643,14.643,0,0,0,1.458.631,2.476,2.476,0,0,1,.6.294,12.88,12.88,0,0,0,1.5.692,6.348,6.348,0,0,1,1.057.48,1.976,1.976,0,0,0,.539.281c.271.11.874.38,1.339.6s1,.466,1.2.544a1.74,1.74,0,0,1,.426.222,1.515,1.515,0,0,0,.423.2,9.6,9.6,0,0,1,.914.4c.31.155.96.444,1.444.642a5.574,5.574,0,0,1,.95.453,3.829,3.829,0,0,0,.742.382c.369.159.956.422,1.305.584s.78.347.957.41c.273.1,2.6,1.164,3.273,1.5.116.058.608.267,1.093.464a2.859,2.859,0,0,1,.881.461c0,.056.066.1.146.1a8.8,8.8,0,0,1,1.238.5c.6.277,1.534.7,2.075.934a11.062,11.062,0,0,1,1.054.5,5.726,5.726,0,0,0,.775.349,7.805,7.805,0,0,1,.916.417,9.69,9.69,0,0,0,.987.46,7.118,7.118,0,0,1,.846.391c.07.069,1.027.513,2.524,1.172a11.093,11.093,0,0,1,1.125.562,1.47,1.47,0,0,0,.448.216,13.138,13.138,0,0,1,1.356.586c.685.322,1.372.633,1.527.69s.472.2.7.323.867.4,1.41.632,1.177.514,1.41.637a6.981,6.981,0,0,0,.712.33c.159.058.84.369,1.514.693,4.366,2.1,6.238,2.332,8.842,1.109.349-.164.825-.376,1.057-.472s.518-.223.634-.284,1.068-.5,2.115-.978,2-.917,2.115-.978a4.571,4.571,0,0,1,.423-.19c.116-.044.795-.353,1.508-.687a12.507,12.507,0,0,1,1.428-.608.5.5,0,0,0,.278-.144,6.126,6.126,0,0,1,1.039-.525c.491-.21,1.083-.481,1.316-.6s.613-.3.846-.4.677-.3.987-.447.881-.41,1.269-.579,1-.445,1.362-.613c.854-.4,1.576-.72,2.43-1.093.38-.165.76-.346.846-.4s.5-.252.931-.437,1.048-.477,1.381-.649a7.677,7.677,0,0,1,.945-.418,7.66,7.66,0,0,0,.945-.419c.333-.173.923-.451,1.311-.619,1.84-.8,3.4-1.52,3.606-1.667a.857.857,0,0,1,.4-.161,1.616,1.616,0,0,0,.553-.214c.206-.118.818-.407,1.36-.644a13.848,13.848,0,0,0,1.323-.646,1.408,1.408,0,0,1,.469-.216,10.687,10.687,0,0,0,1.325-.573,11.6,11.6,0,0,1,1.311-.573,1.582,1.582,0,0,0,.479-.231,10.673,10.673,0,0,1,1.182-.58,8.247,8.247,0,0,0,1.637-.781.618.618,0,0,1,.328-.128,4.123,4.123,0,0,0,.92-.4,4.252,4.252,0,0,1,.91-.4,1.36,1.36,0,0,0,.5-.216,31.037,31.037,0,0,1,3.3-1.509c4.824-2.088,6.095-2.857,6.637-4.019.455-.976.485-3.858.449-43.846l-.036-40.131-.328-.5c-.369-.563-1.067-1.163-1.352-1.163a.625.625,0,0,1-.365-.172c-.155-.152-6.187-.171-52.781-.167l-52.606.005-.634.269m92.132,79.177c.312.28.215,1.361-.135,1.521a.346.346,0,0,0-.215.249,4.748,4.748,0,0,1-1.769,1.4c-.19.039-.346.114-.346.168s-.27.153-.6.22a5.718,5.718,0,0,0-.974.291,1.9,1.9,0,0,1-.568.169,1.609,1.609,0,0,0-.618.315,9.777,9.777,0,0,1-1.493.9c-.284.135.846.619,1.446.619.384,0,1.255.67,1.255.965,0,.413-.7.857-1.48.945a4.792,4.792,0,0,0-1.051.23,7.3,7.3,0,0,1-3.289-.047,2.361,2.361,0,0,0-1.885-.013,2.133,2.133,0,0,1-.607.273,1.67,1.67,0,0,0-.539.243.821.821,0,0,1-.43.161c-.389.007-1.164.568-.784.569a1.508,1.508,0,0,1,.657.23,1.462,1.462,0,0,0,.517.229.292.292,0,0,1,.234.162.663.663,0,0,0,.415.231.671.671,0,0,1,.576.795c-.146.473-.722.613-2.837.687-2.605.091-3.092.01-3.848-.641-.3-.262-.687-.254-1.335.029a2.8,2.8,0,0,1-.879.229c-.194,0-.353.048-.353.107,0,.117-.22.179-1.022.29-.619.085-.74.452-.211.638a14.7,14.7,0,0,1,1.762.814c.942.489.342,1.372-.748,1.1a3.637,3.637,0,0,0-1.639.131,5.918,5.918,0,0,1-3.4.016,1.738,1.738,0,0,0-.449-.229,1.371,1.371,0,0,1-.412-.283,1.488,1.488,0,0,0-1.649.122.942.942,0,0,1-.464.161,1.717,1.717,0,0,0-.623.205,7.226,7.226,0,0,1-1.3.6c-.578.187-.78.547-.388.689.176.064.574.241.884.394s.691.329.846.391c.544.217,1.2.824,1.2,1.11,0,.306-.735.765-1.061.664a14.7,14.7,0,0,0-1.842.07c-2.053.156-2.7.086-3.293-.351a1.675,1.675,0,0,0-.671-.333c-.47,0-2.5,1.545-2.372,1.808a.794.794,0,0,1,.075.265c0,.058.1.105.211.105s.211.039.211.086a3.839,3.839,0,0,0,.67.664,9.335,9.335,0,0,1,1.938,2.2.716.716,0,0,1-.21,1.008.933.933,0,0,1-1.028-.374,2.248,2.248,0,0,0-.383-.5,11.062,11.062,0,0,1-1.257-1.289,7.8,7.8,0,0,0-1.517-1.221,11.649,11.649,0,0,0-1.738,1.447,1.57,1.57,0,0,1-.317.384c-.174.174-.412.433-.529.577-.792.978-1.175,1.117-1.645.6l-.289-.317.368-.537a13.009,13.009,0,0,1,2.248-2.5l.828-.712-.338-.275a1.647,1.647,0,0,0-.412-.275,2.758,2.758,0,0,1-.539-.4c-.617-.532-1.243-.637-1.7-.284-.487.372-1.243.43-3.809.291l-2.25-.122-.044-.432c-.057-.559.7-1.165,2.162-1.734.7-.274,1.007-.6.642-.7-.161-.041-.292-.124-.292-.182a.122.122,0,0,0-.132-.107,3.864,3.864,0,0,1-1.208-.459,9.077,9.077,0,0,0-1.551-.63c-.8-.285-.871-.278-1.353.126-.688.577-1.226.656-3.459.5-1.045-.071-2.071-.12-2.28-.11-.654.035-.847,0-1.075-.184-.346-.281-.269-.686.189-.985.815-.533,1.059-.67,1.2-.67a4.434,4.434,0,0,0,.782-.253l.644-.253L72.6,124.7a4.538,4.538,0,0,1-.846-.262,2.285,2.285,0,0,0-.73-.187.938.938,0,0,1-.493-.147,2.582,2.582,0,0,0-2.547.06.982.982,0,0,1-.521.2.53.53,0,0,0-.361.115c-.2.26-3.156.114-4.746-.234-1.2-.263-.714-1.124,1-1.781.907-.347.674-1.08-.344-1.08a.73.73,0,0,1-.385-.155,2.543,2.543,0,0,0-.715-.3c-.289-.077-.525-.188-.525-.247,0-.164-.843-.125-1.057.05-.567.461-2.951.464-4.27.006a3.078,3.078,0,0,0-.821-.161c-.521,0-1.232-.608-1.1-.945.14-.372.343-.545.637-.545a.52.52,0,0,0,.387-.187c.083-.121.385-.207.853-.244.931-.073.956-.3.09-.83a2.276,2.276,0,0,1-.634-.48c0-.051-.085-.093-.19-.093a.876.876,0,0,1-.445-.229,1.076,1.076,0,0,0-.621-.23c-.94,0-3.646-1.376-3.674-1.867a1.5,1.5,0,0,0-.3-.415c-.37-.407-.452-1.45-.128-1.618a5.073,5.073,0,0,1,2.64.117,1.445,1.445,0,0,0,.586.23,1.578,1.578,0,0,1,.656.327,4.566,4.566,0,0,0,.742.463,2.481,2.481,0,0,1,1.1,1.508c.086.437.6,1.026.89,1.026a.251.251,0,0,1,.189.147,2.5,2.5,0,0,0,.684.487,3.793,3.793,0,0,1,.728.483.459.459,0,0,0,.321.144.345.345,0,0,1,.29.172.3.3,0,0,0,.235.172,6.32,6.32,0,0,1,1.483.774.861.861,0,0,0,.451.143.537.537,0,0,1,.377.146,1.369,1.369,0,0,0,.465.286c.194.077.463.192.6.255l.493.231a9.209,9.209,0,0,0,1.022.39,2.8,2.8,0,0,1,.423.181,4.126,4.126,0,0,0,.564.23,5.732,5.732,0,0,1,.564.216,8.5,8.5,0,0,0,1.725.587.653.653,0,0,1,.389.172,1.058,1.058,0,0,0,.616.173,2.18,2.18,0,0,1,.864.228,2.024,2.024,0,0,0,.775.229,2.383,2.383,0,0,1,.756.173,2.172,2.172,0,0,0,.569.171,3.243,3.243,0,0,1,.719.229,3.067,3.067,0,0,0,.77.23,2.039,2.039,0,0,1,.595.161,4.637,4.637,0,0,0,.846.241,2.144,2.144,0,0,1,.679.227,2.063,2.063,0,0,0,.66.224,1.438,1.438,0,0,1,.616.242.937.937,0,0,0,.557.165.943.943,0,0,1,.564.172.6.6,0,0,0,.34.172,3.129,3.129,0,0,1,.7.223,5.655,5.655,0,0,0,.937.294,1.3,1.3,0,0,1,.567.236.6.6,0,0,0,.35.165,3.5,3.5,0,0,1,1.335.708c0,.052.124.094.276.094a2.381,2.381,0,0,1,.811.289l.8.43c.147.078.432.257.634.4a4.328,4.328,0,0,0,.953.582,10.919,10.919,0,0,1,1.787,1.2,3.834,3.834,0,0,0,.64.439,4.676,4.676,0,0,1,.72.6l.631.593.478-.344c.263-.189.984-.744,1.6-1.233a9.142,9.142,0,0,1,1.24-.889,2.356,2.356,0,0,0,.608-.373,6.5,6.5,0,0,1,1.535-.914c.138-.045.251-.136.251-.2s.074-.118.165-.118a.848.848,0,0,0,.388-.161,8.483,8.483,0,0,1,1.1-.522,5.07,5.07,0,0,0,.96-.47.489.489,0,0,1,.335-.109,1.261,1.261,0,0,0,.577-.229,1.255,1.255,0,0,1,.568-.229.691.691,0,0,0,.419-.172.6.6,0,0,1,.337-.172,2.95,2.95,0,0,0,.687-.229,2.734,2.734,0,0,1,.792-.229.726.726,0,0,0,.442-.173,1.6,1.6,0,0,1,.719-.243,1.616,1.616,0,0,0,.7-.228.648.648,0,0,1,.393-.158,2.75,2.75,0,0,0,.757-.229,2.779,2.779,0,0,1,.739-.229,2.779,2.779,0,0,0,.739-.229,2.872,2.872,0,0,1,.88-.233,1.444,1.444,0,0,0,.628-.172,1.221,1.221,0,0,1,.529-.168,2.735,2.735,0,0,0,.782-.229,2.823,2.823,0,0,1,.9-.229.9.9,0,0,0,.535-.16,1.847,1.847,0,0,1,.781-.235,1.831,1.831,0,0,0,.788-.242.714.714,0,0,1,.435-.166,2.734,2.734,0,0,0,.792-.229,2.95,2.95,0,0,1,.687-.229.58.58,0,0,0,.329-.165,1.317,1.317,0,0,1,.571-.237,1.317,1.317,0,0,0,.571-.237.614.614,0,0,1,.364-.165,3.434,3.434,0,0,0,.9-.4,3.083,3.083,0,0,1,.99-.4.432.432,0,0,0,.367-.168.584.584,0,0,1,.347-.237,1.537,1.537,0,0,0,.449-.2,5.052,5.052,0,0,1,1.2-.652.9.9,0,0,0,.38-.229.919.919,0,0,1,.368-.229,4.584,4.584,0,0,0,.855-.545c1.469-1.077,1.526-1.135,1.526-1.56a.837.837,0,0,1,.211-.574.559.559,0,0,0,.211-.286c0-.338,2.392-1.622,3.021-1.622a.679.679,0,0,0,.434-.115,2.507,2.507,0,0,1,1.831.113m-1.928,1.275a.757.757,0,0,1-.49.253,3.591,3.591,0,0,0-1.457.933c0,.152.621.043.948-.166a1.53,1.53,0,0,1,.516-.233c.239-.005.676-.55.621-.773-.043-.176-.059-.177-.138-.013m-74.273.242c0,.4,1.865,1.287,2.172,1.037.11-.09-1.254-1.061-1.491-1.061a1.858,1.858,0,0,1-.458-.07c-.139-.043-.223-.008-.223.094m5.71,5.479a2.046,2.046,0,0,0,.862.115c.481,0,.742-.044.688-.115a2.046,2.046,0,0,0-.862-.115c-.481,0-.742.044-.688.115m61.681,0c-.149.078.049.112.67.113.495,0,.881-.048.881-.113,0-.147-1.271-.147-1.551,0M64.99,123.106c-.3.063-.092.091.749.1.749.009,1.14-.028,1.084-.1a4.134,4.134,0,0,0-1.833,0m46.243,0c-.056.074.382.11,1.225.1.907-.009,1.182-.041.89-.1a5.539,5.539,0,0,0-2.115,0m-37.925,2.523c-.048.063,0,.115.116.115a6.174,6.174,0,0,1,.92.188c.738.194,1.591,0,1.357-.308a6.582,6.582,0,0,0-2.393.005m28.919-.022c-.146.192.9.536,1.185.391a3.322,3.322,0,0,1,.833-.209c.312-.041.533-.119.491-.174a8.4,8.4,0,0,0-2.51-.008m-8.009,3.579c-.509.455.809.826,1.742.492.607-.218.7-.377.223-.383a1.989,1.989,0,0,1-.67-.168,1.233,1.233,0,0,0-1.3.06m-11.781.037c-.872.174-.716.461.325.6.739.1,1.519-.323,1.092-.587-.288-.177-.565-.179-1.416-.009" transform="translate(107.941 916.6)" fill="#7c3dee" fill-rule="evenodd"/>
    <text id="New_Feed" data-name="New Feed" transform="translate(157 1016.8)" fill="#fff" font-size="17" font-family="Philosopher-Bold, Philosopher" font-weight="700" letter-spacing="0.06em"><tspan x="0" y="0">New Feed</tspan></text>
    <text id="Eyers" transform="translate(172 975.8)" fill="#fff" font-size="20" font-family="KaushanScript-Regular, Kaushan Script" letter-spacing="0.06em"><tspan x="0" y="0">Eyers</tspan></text>
    <rect id="Rectangle_1571" data-name="Rectangle 1571" width="28" height="3" rx="1.5" transform="translate(183 990.8)" fill="#fff"/>
  </g>
</svg>
