<svg xmlns="http://www.w3.org/2000/svg" width="72.766" height="76.904" viewBox="0 0 72.766 76.904">
  <g id="splash" transform="translate(29.11 90.266) rotate(-140)">
    <path id="Path_5" d="M22.644,0a2.833,2.833,0,0,1,2.111.624,82.1,82.1,0,0,1,10.585,10.9,11.252,11.252,0,0,1,1.495,2.984,3.7,3.7,0,0,0,1.044,1.583c.244.209.474.494.146.812-.261.253-.489.031-.746-.088-6.33-2.944-10.511-8.455-15.505-12.992a2.456,2.456,0,0,1-.622-2.763A1.553,1.553,0,0,1,22.644,0Z" transform="translate(-0.187)" fill="#3898ec" fill-rule="evenodd"/>
    <path id="Path_4" d="M30.044,27.727a11.826,11.826,0,0,1-3.212-2.159c-.625-.487-1.2-1.037-1.792-1.57-.226-.2-.558-.409-.255-.777.244-.3.517-.091.749.034A14.111,14.111,0,0,1,30.044,27.727Z" transform="translate(-0.141 0.108)" fill="#3898ec" fill-rule="evenodd"/>
    <path id="Path_3" d="M12.083,43.826c3.156-.1,6.31-.061,9.466.021A8.334,8.334,0,0,1,26.664,45.6c.266.209.768.354.58.783-.226.515-.6.107-.9-.013a1.738,1.738,0,0,0-1.288-.008,18.325,18.325,0,0,1-6.375.888c-5.232.062-10.465.109-15.694-.2a3.269,3.269,0,0,1-2.539-1.12c-.752-.919-.561-1.5.625-1.751a9.184,9.184,0,0,1,1.309-.13C5.611,43.825,8.848,43.853,12.083,43.826Z" transform="translate(0 0.202)" fill="#3898ec" fill-rule="evenodd"/>
    <path id="Path_2" d="M21.562,66.674a1.225,1.225,0,0,1-1.2-.708.877.877,0,0,1,.143-1.205c1.627-1.073,2.717-2.849,4.642-3.531.293-.1.551-.37.871-.087.344.305.025.567-.048.857a7.18,7.18,0,0,1-2.887,4.131A2.547,2.547,0,0,1,21.562,66.674Z" transform="translate(-0.117 0.288)" fill="#3898ec" fill-rule="evenodd"/>
    <path id="Path_1" d="M18.832,87.6c-.967.015-1.545-.335-1.749-1.146-.192-.762.288-1.145.879-1.508a54.44,54.44,0,0,0,5.346-4.028A40.269,40.269,0,0,1,34.831,73.98c.294-.1.6-.359.846.008.175.255-.03.464-.242.582-1.328.738-2.129,2.024-3.194,3.035a118.924,118.924,0,0,1-11.467,9.219A2.946,2.946,0,0,1,18.832,87.6Z" transform="translate(-0.187 0.387)" fill="#3898ec" fill-rule="evenodd"/>
  </g>
</svg>
