<svg xmlns="http://www.w3.org/2000/svg" width="26" height="26" viewBox="0 0 26 26">
  <path id="whatsapp_icon" d="M21.172,17.543c.317.173.529.263.605.4a2.7,2.7,0,0,1-.246,1.53,3.268,3.268,0,0,1-2.24,1.455c-.594.032-.611.464-3.849-.953s-5.186-4.866-5.34-5.088a6.29,6.29,0,0,1-1.194-3.392,3.624,3.624,0,0,1,1.232-2.654,1.187,1.187,0,0,1,.877-.373l.619.05c.189.007.462-.09.707.567l.907,2.437a.6.6,0,0,1,.005.567l-.343.527-.506.548c-.168.155-.343.324-.167.654a9.756,9.756,0,0,0,1.715,2.306,8.824,8.824,0,0,0,2.54,1.7c.317.174.507.155.7-.054l1.071-1.228c.227-.316.441-.254.733-.135ZM15,2A13,13,0,1,1,8.045,25.985L2,28l2.015-6.045A13,13,0,0,1,15,2Zm0,2.6A10.4,10.4,0,0,0,6.5,21L5.25,24.75,9,23.5A10.4,10.4,0,1,0,15,4.6Z" transform="translate(-2 -2)" fill="#7c3dee" fill-rule="evenodd"/>
</svg>
